<?xml version="1.0" encoding="UTF-8"?>
<svg width="512px" height="512px" viewBox="0 0 512 512" version="1.1" xmlns="http://www.w3.org/2000/svg" xmlns:xlink="http://www.w3.org/1999/xlink">
    <!-- Generator: Sketch 62 (91390) - https://sketch.com -->
    <title>time</title>
    <desc>Created with Sketch.</desc>
    <g id="Page-1" stroke="none" stroke-width="1" fill="none" fill-rule="evenodd">
        <g id="time" fill="#FFFFFF" fill-rule="nonzero">
            <path d="M256,0 C114.84,0 0,114.84 0,256 C0,397.16 114.84,512 256,512 C397.16,512 512,397.16 512,256 C512,114.84 397.16,0 256,0 Z M256,474.074 C135.756,474.074 37.926,376.244 37.926,256 C37.926,135.756 135.756,37.926 256,37.926 C376.244,37.926 474.074,135.756 474.074,256 C474.074,376.244 376.244,474.074 256,474.074 Z" id="Shape"></path>
            <path d="M355.24,244.622 L272.435,244.622 L272.435,154.232 C272.435,143.758 263.946,135.269 253.472,135.269 C242.998,135.269 234.509,143.758 234.509,154.232 L234.509,263.585 C234.509,274.059 242.998,282.548 253.472,282.548 L355.24,282.548 C365.714,282.548 374.203,274.059 374.203,263.585 C374.203,253.111 365.713,244.622 355.24,244.622 Z" id="Path"></path>
        </g>
    </g>
</svg>